<?xml version="1.0" encoding="iso-8859-1"?>
<svg version="1.1" xmlns="http://www.w3.org/2000/svg" xmlns:xlink="http://www.w3.org/1999/xlink" x="0px" y="0px" width="720px"
	 height="456px" viewBox="0 0 720 456" style="enable-background:new 0 0 720 456;" xml:space="preserve">
<g id="circuit">
	<path style="fill:none;stroke:#C0C0C0;stroke-width:11;stroke-miterlimit:10;" d="M63.451,241.115
		c-4.728-3.957-11.537-6.328-10.282-20.972c1.254-14.643,3.046-34.08,7.419-44.438s18.16-38.189,18.61-50.232
		c0.451-12.043,2.099-17.305,12.104-17.939c10.005-0.637,14.596,1.398,24.308-6.555c9.711-7.949,22.77-23.498,47.561-22.197
		c24.789,1.299,51.508,21.648,60.599,27.873c11.396,7.805,22.961,19.951,24.201,23.254c2.579,6.873-3.79,19.414,9.642,36.461
		c8.865,11.254,42.305,76.158,102.577,76.158c17.008,0,29.764-0.871,39.618-2.418c25.07-3.939,31.363-12.255,41.084-21.724
		c3.146-3.064,6.756-5.957,9.855-8.264c4.133-3.076,10.482-5.344,12.33-5.49c20.826-1.652,64.23-5.502,78.617-2.432
		c15.664,3.342,73.396,36.968,81.943,40.515c8.545,3.547,11.434,12.059,7.715,23.102c-2.949,8.754-15.074,38.744-19.15,47.994
		c-4.076,9.254-10.873,12.574-23.77,9.496c-12.896-3.082-31.736-8.1-39.373-9.922c-7.639-1.826-14.5-4.695-16.6,0.426
		c-2.1,5.123,2.828,23.113,2.111,32.225c-0.717,9.109-6.268,12.797-11.971,14.951c-6.229,2.354-35.416,2.848-45.727,3.438
		c-15.801,0.9-166.308,1.607-182.509,1.875c-12.843,0.211-16.132-0.168-18.866-5.818c-2.731-5.654-9.485-17.863-19.036-22.701
		c-9.551-4.834-15.396-3.002-29.093-2.107c-7.419,0.484-39.931,1.146-70.214-1.217c-26.253-2.051-51.279-8.367-62.001-11.854
		c-6.944-2.256-13.767-3.672-12.729-11.926c1.038-8.256,15.863-23.395,16.264-26.006c0.456-2.955,0.694-5.643,0.377-8.01
		c-0.598-4.459-3.077-4.939-9.886-12.568C84.012,258.301,68.179,245.074,63.451,241.115z"/>
</g>
</svg>
