<?xml version="1.0" encoding="iso-8859-1"?>
<!-- Generator: Adobe Illustrator 16.0.0, SVG Export Plug-In . SVG Version: 6.00 Build 0)  -->
<!DOCTYPE svg PUBLIC "-//W3C//DTD SVG 1.1//EN" "http://www.w3.org/Graphics/SVG/1.1/DTD/svg11.dtd">
<svg version="1.1" xmlns="http://www.w3.org/2000/svg" xmlns:xlink="http://www.w3.org/1999/xlink" x="0px" y="0px" width="720px"
	 height="456px" viewBox="0 0 720 456" style="enable-background:new 0 0 720 456;" xml:space="preserve">
<g id="circuit">
	<path style="fill:none;stroke:#C0C0C0;stroke-width:10;stroke-miterlimit:10;" d="M237.435,382.734
		c0,0,292.245-3.861,315.108-3.861c22.862,0,50.688-12.713,50.688-42.434c0-23.15-19.122-33.135-31.077-33.135
		c-11.432,0-21.077,3.938-21.077,13.844c0,9.908,4.525,14.146,4.525,19.861s-5.761,5.287-25.362,5.287s-128.577-3.195-141.533-3.195
		c-17.527,0-19.813-2.473-23.624-11.998s-5.507-18.201-6.478-22.27c-1.144-4.785,2.286-13.549,10.289-13.549
		c8.001,0,19.628,3.975,31.44,3.98c17.055,0.01,34.778-15.031,34.778-30.652c0-15.623-28.037-47.059-28.037-76.018
		c0-34.676,33.181-43.248,59.745-42.105c16.75,0.721,69.92,4.574,87.447,0c13.217-3.447,19.395-6.831,19.395-13.308
		c0-4.41-5.249-8.371-11.686-9.794c-19.568-4.32-62.604-15.563-73.438-17.67c-13.718-2.666-52.203,7.24-78.494,10.669
		c-26.291,3.43-32.388,5.335-43.438,5.335c-11.05,0-26.72-18.624-26.72-27.769c0-9.146,7.145-13.288,11.717-13.288
		c8.288,0,10.583,5.904,14.624,10.954c3.238,4.05,5.049,5.335,9.239,5.335s15.289-1.856,15.289-20.147
		c0-12.955-9.72-25.196-29.864-25.196c-10.669,0-30.102,7.24-35.817,28.197c-5.716,20.957-70.493,198.902-70.493,198.902
		c-4.954,11.812-22.1,62.871-23.625,67.443c-1.524,4.572-3.429,11.432-17.909,11.812c-14.479,0.381-77.35,3.43-89.543,4.191
		s-34.293,11.432-34.293,17.527c0,6.098,12.956,3.049,19.434,3.049C115.121,382.734,231.714,382.734,237.435,382.734z"/>
</g>
<g id="Layer_1">
</g>
</svg>
